<mxfile host="app.diagrams.net" modified="2022-02-17T03:09:10.732Z" agent="5.0 (Macintosh; Intel Mac OS X 10_15_7) AppleWebKit/537.36 (KHTML, like Gecko) Chrome/98.0.4758.102 Safari/537.36" etag="poCKHmUG654fB2St6g99" version="14.9.5" type="github">
  <diagram id="C5RBs43oDa-KdzZeNtuy" name="Page-1">
    <mxGraphModel dx="1303" dy="955" grid="1" gridSize="10" guides="1" tooltips="1" connect="1" arrows="1" fold="1" page="1" pageScale="1" pageWidth="827" pageHeight="1169" math="0" shadow="0">
      <root>
        <mxCell id="WIyWlLk6GJQsqaUBKTNV-0" />
        <mxCell id="WIyWlLk6GJQsqaUBKTNV-1" parent="WIyWlLk6GJQsqaUBKTNV-0" />
        <mxCell id="L7a3QpW-aMf0CyANUQQP-12" value="" style="edgeStyle=orthogonalEdgeStyle;rounded=0;orthogonalLoop=1;jettySize=auto;html=1;exitX=0.5;exitY=1;exitDx=0;exitDy=0;" edge="1" parent="WIyWlLk6GJQsqaUBKTNV-1" source="WIyWlLk6GJQsqaUBKTNV-3" target="L7a3QpW-aMf0CyANUQQP-3">
          <mxGeometry relative="1" as="geometry" />
        </mxCell>
        <mxCell id="WIyWlLk6GJQsqaUBKTNV-3" value="mapChildren" style="rounded=1;whiteSpace=wrap;html=1;fontSize=12;glass=0;strokeWidth=1;shadow=0;" parent="WIyWlLk6GJQsqaUBKTNV-1" vertex="1">
          <mxGeometry x="345" y="120" width="120" height="40" as="geometry" />
        </mxCell>
        <mxCell id="L7a3QpW-aMf0CyANUQQP-13" style="edgeStyle=orthogonalEdgeStyle;rounded=0;orthogonalLoop=1;jettySize=auto;html=1;exitX=0.5;exitY=1;exitDx=0;exitDy=0;" edge="1" parent="WIyWlLk6GJQsqaUBKTNV-1" source="L7a3QpW-aMf0CyANUQQP-3" target="L7a3QpW-aMf0CyANUQQP-8">
          <mxGeometry relative="1" as="geometry" />
        </mxCell>
        <mxCell id="L7a3QpW-aMf0CyANUQQP-3" value="mapIntoWithPrefixInternal" style="rounded=1;whiteSpace=wrap;html=1;fontSize=12;glass=0;strokeWidth=1;shadow=0;" vertex="1" parent="WIyWlLk6GJQsqaUBKTNV-1">
          <mxGeometry x="320" y="210" width="170" height="40" as="geometry" />
        </mxCell>
        <mxCell id="L7a3QpW-aMf0CyANUQQP-14" style="edgeStyle=orthogonalEdgeStyle;rounded=0;orthogonalLoop=1;jettySize=auto;html=1;exitX=0.5;exitY=1;exitDx=0;exitDy=0;" edge="1" parent="WIyWlLk6GJQsqaUBKTNV-1" source="L7a3QpW-aMf0CyANUQQP-8" target="L7a3QpW-aMf0CyANUQQP-9">
          <mxGeometry relative="1" as="geometry" />
        </mxCell>
        <mxCell id="L7a3QpW-aMf0CyANUQQP-8" value="traverseAllChildren" style="rounded=1;whiteSpace=wrap;html=1;fontSize=12;glass=0;strokeWidth=1;shadow=0;" vertex="1" parent="WIyWlLk6GJQsqaUBKTNV-1">
          <mxGeometry x="320" y="300" width="170" height="40" as="geometry" />
        </mxCell>
        <mxCell id="L7a3QpW-aMf0CyANUQQP-15" style="edgeStyle=orthogonalEdgeStyle;rounded=0;orthogonalLoop=1;jettySize=auto;html=1;exitX=0.5;exitY=1;exitDx=0;exitDy=0;" edge="1" parent="WIyWlLk6GJQsqaUBKTNV-1" source="L7a3QpW-aMf0CyANUQQP-9" target="L7a3QpW-aMf0CyANUQQP-10">
          <mxGeometry relative="1" as="geometry" />
        </mxCell>
        <mxCell id="L7a3QpW-aMf0CyANUQQP-9" value="traverseAllChildrenImpl" style="rounded=1;whiteSpace=wrap;html=1;fontSize=12;glass=0;strokeWidth=1;shadow=0;" vertex="1" parent="WIyWlLk6GJQsqaUBKTNV-1">
          <mxGeometry x="320" y="390" width="170" height="40" as="geometry" />
        </mxCell>
        <mxCell id="L7a3QpW-aMf0CyANUQQP-21" style="edgeStyle=orthogonalEdgeStyle;rounded=0;orthogonalLoop=1;jettySize=auto;html=1;exitX=0.5;exitY=1;exitDx=0;exitDy=0;entryX=0.5;entryY=0;entryDx=0;entryDy=0;" edge="1" parent="WIyWlLk6GJQsqaUBKTNV-1" source="L7a3QpW-aMf0CyANUQQP-10" target="L7a3QpW-aMf0CyANUQQP-20">
          <mxGeometry relative="1" as="geometry" />
        </mxCell>
        <mxCell id="L7a3QpW-aMf0CyANUQQP-22" value="如果是单节点形式（包括：string、number、REACT_ELEMENT_TYPE、REACT_PORTAL_TYPE）" style="edgeLabel;html=1;align=center;verticalAlign=middle;resizable=0;points=[];" vertex="1" connectable="0" parent="L7a3QpW-aMf0CyANUQQP-21">
          <mxGeometry x="-0.1143" y="2" relative="1" as="geometry">
            <mxPoint as="offset" />
          </mxGeometry>
        </mxCell>
        <mxCell id="L7a3QpW-aMf0CyANUQQP-24" value="如果是数组或者Iterator形式，则遍历递归调用自身" style="edgeStyle=orthogonalEdgeStyle;rounded=0;orthogonalLoop=1;jettySize=auto;html=1;exitX=1;exitY=0.5;exitDx=0;exitDy=0;entryX=1;entryY=0.5;entryDx=0;entryDy=0;" edge="1" parent="WIyWlLk6GJQsqaUBKTNV-1" source="L7a3QpW-aMf0CyANUQQP-10" target="L7a3QpW-aMf0CyANUQQP-9">
          <mxGeometry relative="1" as="geometry">
            <Array as="points">
              <mxPoint x="595" y="530" />
              <mxPoint x="595" y="410" />
            </Array>
          </mxGeometry>
        </mxCell>
        <mxCell id="L7a3QpW-aMf0CyANUQQP-10" value="判断参数children的类型" style="rhombus;whiteSpace=wrap;html=1;" vertex="1" parent="WIyWlLk6GJQsqaUBKTNV-1">
          <mxGeometry x="300" y="480" width="210" height="100" as="geometry" />
        </mxCell>
        <mxCell id="L7a3QpW-aMf0CyANUQQP-34" style="edgeStyle=orthogonalEdgeStyle;rounded=0;orthogonalLoop=1;jettySize=auto;html=1;exitX=0.5;exitY=1;exitDx=0;exitDy=0;entryX=0.5;entryY=0;entryDx=0;entryDy=0;" edge="1" parent="WIyWlLk6GJQsqaUBKTNV-1" source="L7a3QpW-aMf0CyANUQQP-20" target="L7a3QpW-aMf0CyANUQQP-32">
          <mxGeometry relative="1" as="geometry" />
        </mxCell>
        <mxCell id="L7a3QpW-aMf0CyANUQQP-20" value="调用传入的回调函数mapSingleChildIntoContext处理" style="rounded=1;whiteSpace=wrap;html=1;fontSize=12;glass=0;strokeWidth=1;shadow=0;" vertex="1" parent="WIyWlLk6GJQsqaUBKTNV-1">
          <mxGeometry x="312.5" y="650" width="185" height="40" as="geometry" />
        </mxCell>
        <mxCell id="L7a3QpW-aMf0CyANUQQP-26" value="初始化一个空数组result，用来保存每次遍历之后得到的新元素，最后返回这个result，这也是map与forEach有差别的地方，forEach不用初始化，也不用返回这个数组" style="whiteSpace=wrap;html=1;fillColor=#FFF2CC;" vertex="1" parent="WIyWlLk6GJQsqaUBKTNV-1">
          <mxGeometry x="510" y="105" width="270" height="70" as="geometry" />
        </mxCell>
        <mxCell id="L7a3QpW-aMf0CyANUQQP-27" value="" style="endArrow=none;dashed=1;html=1;dashPattern=1 3;strokeWidth=2;" edge="1" parent="WIyWlLk6GJQsqaUBKTNV-1">
          <mxGeometry width="50" height="50" relative="1" as="geometry">
            <mxPoint x="610" y="570" as="sourcePoint" />
            <mxPoint x="660" y="520" as="targetPoint" />
          </mxGeometry>
        </mxCell>
        <mxCell id="L7a3QpW-aMf0CyANUQQP-29" value="" style="endArrow=none;dashed=1;html=1;dashPattern=1 3;strokeWidth=2;" edge="1" parent="WIyWlLk6GJQsqaUBKTNV-1">
          <mxGeometry width="50" height="50" relative="1" as="geometry">
            <mxPoint x="610" y="570" as="sourcePoint" />
            <mxPoint x="660" y="520" as="targetPoint" />
          </mxGeometry>
        </mxCell>
        <mxCell id="L7a3QpW-aMf0CyANUQQP-30" value="" style="endArrow=none;dashed=1;html=1;dashPattern=1 3;strokeWidth=2;" edge="1" parent="WIyWlLk6GJQsqaUBKTNV-1">
          <mxGeometry width="50" height="50" relative="1" as="geometry">
            <mxPoint x="610" y="570" as="sourcePoint" />
            <mxPoint x="660" y="520" as="targetPoint" />
          </mxGeometry>
        </mxCell>
        <mxCell id="L7a3QpW-aMf0CyANUQQP-35" style="edgeStyle=orthogonalEdgeStyle;rounded=0;orthogonalLoop=1;jettySize=auto;html=1;exitX=0.5;exitY=1;exitDx=0;exitDy=0;entryX=0.5;entryY=0;entryDx=0;entryDy=0;" edge="1" parent="WIyWlLk6GJQsqaUBKTNV-1" source="L7a3QpW-aMf0CyANUQQP-32" target="L7a3QpW-aMf0CyANUQQP-33">
          <mxGeometry relative="1" as="geometry" />
        </mxCell>
        <mxCell id="L7a3QpW-aMf0CyANUQQP-32" value="执行map方法传入的回调函数" style="rounded=1;whiteSpace=wrap;html=1;fontSize=12;glass=0;strokeWidth=1;shadow=0;" vertex="1" parent="WIyWlLk6GJQsqaUBKTNV-1">
          <mxGeometry x="312.5" y="740" width="185" height="40" as="geometry" />
        </mxCell>
        <mxCell id="L7a3QpW-aMf0CyANUQQP-36" style="edgeStyle=orthogonalEdgeStyle;rounded=0;orthogonalLoop=1;jettySize=auto;html=1;exitX=0;exitY=0.5;exitDx=0;exitDy=0;entryX=0;entryY=0.5;entryDx=0;entryDy=0;" edge="1" parent="WIyWlLk6GJQsqaUBKTNV-1" source="L7a3QpW-aMf0CyANUQQP-33" target="L7a3QpW-aMf0CyANUQQP-3">
          <mxGeometry relative="1" as="geometry">
            <Array as="points">
              <mxPoint x="90" y="890" />
              <mxPoint x="90" y="230" />
            </Array>
          </mxGeometry>
        </mxCell>
        <mxCell id="L7a3QpW-aMf0CyANUQQP-38" value="如果是数组&lt;br&gt;只是这次传入的遍历方法是 c =&amp;gt; c" style="edgeLabel;html=1;align=center;verticalAlign=middle;resizable=0;points=[];" vertex="1" connectable="0" parent="L7a3QpW-aMf0CyANUQQP-36">
          <mxGeometry x="0.1382" y="1" relative="1" as="geometry">
            <mxPoint x="11" y="16" as="offset" />
          </mxGeometry>
        </mxCell>
        <mxCell id="L7a3QpW-aMf0CyANUQQP-40" style="edgeStyle=orthogonalEdgeStyle;rounded=0;orthogonalLoop=1;jettySize=auto;html=1;exitX=0.5;exitY=1;exitDx=0;exitDy=0;" edge="1" parent="WIyWlLk6GJQsqaUBKTNV-1" source="L7a3QpW-aMf0CyANUQQP-33" target="L7a3QpW-aMf0CyANUQQP-39">
          <mxGeometry relative="1" as="geometry" />
        </mxCell>
        <mxCell id="L7a3QpW-aMf0CyANUQQP-41" value="如果新child存在并且不是数组" style="edgeLabel;html=1;align=center;verticalAlign=middle;resizable=0;points=[];" vertex="1" connectable="0" parent="L7a3QpW-aMf0CyANUQQP-40">
          <mxGeometry x="0.0667" relative="1" as="geometry">
            <mxPoint as="offset" />
          </mxGeometry>
        </mxCell>
        <mxCell id="L7a3QpW-aMf0CyANUQQP-33" value="判断得到的新child的类型" style="rhombus;whiteSpace=wrap;html=1;" vertex="1" parent="WIyWlLk6GJQsqaUBKTNV-1">
          <mxGeometry x="300" y="840" width="210" height="100" as="geometry" />
        </mxCell>
        <mxCell id="L7a3QpW-aMf0CyANUQQP-37" value="这里传入上一步初始化的result和map方法接收的遍历元素的回调函数func" style="whiteSpace=wrap;html=1;fillColor=#FFF2CC;" vertex="1" parent="WIyWlLk6GJQsqaUBKTNV-1">
          <mxGeometry x="510" y="200" width="270" height="60" as="geometry" />
        </mxCell>
        <mxCell id="L7a3QpW-aMf0CyANUQQP-39" value="将新child放入数组result中，等待最后返回这个result数组" style="rounded=1;whiteSpace=wrap;html=1;fontSize=12;glass=0;strokeWidth=1;shadow=0;" vertex="1" parent="WIyWlLk6GJQsqaUBKTNV-1">
          <mxGeometry x="312.5" y="1010" width="185" height="40" as="geometry" />
        </mxCell>
      </root>
    </mxGraphModel>
  </diagram>
</mxfile>
